<?xml version="1.0" encoding="UTF-8" standalone="no"?>
<!DOCTYPE svg PUBLIC "-//W3C//DTD SVG 1.1//EN"
 "http://www.w3.org/Graphics/SVG/1.1/DTD/svg11.dtd">
<!-- Generated by graphviz version 2.48.0 (0)
 -->
<!-- Pages: 1 -->
<svg width="202pt" height="116pt"
 viewBox="0.00 0.00 202.00 116.00" xmlns="http://www.w3.org/2000/svg" xmlns:xlink="http://www.w3.org/1999/xlink">
<g id="graph0" class="graph" transform="scale(1 1) rotate(0) translate(4 112)">
<polygon fill="white" stroke="transparent" points="-4,4 -4,-112 198,-112 198,4 -4,4"/>
<!-- A -->
<g id="node1" class="node">
<title>A</title>
<polygon fill="none" stroke="lime" points="133.5,-108 60.5,-108 60.5,-72 133.5,-72 133.5,-108"/>
<text text-anchor="middle" x="97" y="-86.3" font-family="wqy-microhei" font-size="14.00">工作区 1</text>
</g>
<!-- B -->
<g id="node2" class="node">
<title>B</title>
<polygon fill="none" stroke="blue" points="88,-36 0,-36 0,0 88,0 88,-36"/>
<text text-anchor="middle" x="44" y="-14.3" font-family="wqy-microhei" font-size="14.00">左边的终端</text>
</g>
<!-- A&#45;&gt;B -->
<g id="edge1" class="edge">
<title>A&#45;&gt;B</title>
<path fill="none" stroke="black" d="M83.9,-71.7C77.61,-63.39 69.95,-53.28 63.04,-44.14"/>
<polygon fill="black" stroke="black" points="65.78,-41.96 56.95,-36.1 60.2,-46.19 65.78,-41.96"/>
</g>
<!-- C -->
<g id="node3" class="node">
<title>C</title>
<polygon fill="none" stroke="blue" points="194,-36 106,-36 106,0 194,0 194,-36"/>
<text text-anchor="middle" x="150" y="-14.3" font-family="wqy-microhei" font-size="14.00">右边的终端</text>
</g>
<!-- A&#45;&gt;C -->
<g id="edge2" class="edge">
<title>A&#45;&gt;C</title>
<path fill="none" stroke="black" d="M110.1,-71.7C116.39,-63.39 124.05,-53.28 130.96,-44.14"/>
<polygon fill="black" stroke="black" points="133.8,-46.19 137.05,-36.1 128.22,-41.96 133.8,-46.19"/>
</g>
</g>
</svg>
