<?xml version="1.0" encoding="UTF-8" standalone="no"?>
<!DOCTYPE svg PUBLIC "-//W3C//DTD SVG 1.1//EN"
 "http://www.w3.org/Graphics/SVG/1.1/DTD/svg11.dtd">
<!-- Generated by graphviz version 2.48.0 (0)
 -->
<!-- Pages: 1 -->
<svg width="248pt" height="188pt"
 viewBox="0.00 0.00 248.00 188.00" xmlns="http://www.w3.org/2000/svg" xmlns:xlink="http://www.w3.org/1999/xlink">
<g id="graph0" class="graph" transform="scale(1 1) rotate(0) translate(4 184)">
<polygon fill="white" stroke="transparent" points="-4,4 -4,-184 244,-184 244,4 -4,4"/>
<!-- A -->
<g id="node1" class="node">
<title>A</title>
<polygon fill="none" stroke="lime" points="129.5,-180 56.5,-180 56.5,-144 129.5,-144 129.5,-180"/>
<text text-anchor="middle" x="93" y="-158.3" font-family="wqy-microhei" font-size="14.00">工作区 1</text>
</g>
<!-- B -->
<g id="node2" class="node">
<title>B</title>
<polygon fill="none" stroke="blue" points="88,-108 0,-108 0,-72 88,-72 88,-108"/>
<text text-anchor="middle" x="44" y="-86.3" font-family="wqy-microhei" font-size="14.00">左边的终端</text>
</g>
<!-- A&#45;&gt;B -->
<g id="edge1" class="edge">
<title>A&#45;&gt;B</title>
<path fill="none" stroke="black" d="M80.89,-143.7C75.13,-135.47 68.14,-125.48 61.79,-116.42"/>
<polygon fill="black" stroke="black" points="64.58,-114.29 55.97,-108.1 58.84,-118.3 64.58,-114.29"/>
</g>
<!-- C -->
<g id="node3" class="node">
<title>C</title>
<polygon fill="none" stroke="gray" points="180,-108 106,-108 106,-72 180,-72 180,-108"/>
<text text-anchor="middle" x="143" y="-86.3" font-family="way-microhei" font-size="14.00">垂直切分</text>
</g>
<!-- A&#45;&gt;C -->
<g id="edge2" class="edge">
<title>A&#45;&gt;C</title>
<path fill="none" stroke="black" d="M105.36,-143.7C111.23,-135.47 118.37,-125.48 124.84,-116.42"/>
<polygon fill="black" stroke="black" points="127.82,-118.28 130.78,-108.1 122.12,-114.21 127.82,-118.28"/>
</g>
<!-- D -->
<g id="node4" class="node">
<title>D</title>
<polygon fill="none" stroke="blue" points="134,-36 46,-36 46,0 134,0 134,-36"/>
<text text-anchor="middle" x="90" y="-14.3" font-family="wqy-microhei" font-size="14.00">右上的终端</text>
</g>
<!-- C&#45;&gt;D -->
<g id="edge3" class="edge">
<title>C&#45;&gt;D</title>
<path fill="none" stroke="black" d="M129.9,-71.7C123.61,-63.39 115.95,-53.28 109.04,-44.14"/>
<polygon fill="black" stroke="black" points="111.78,-41.96 102.95,-36.1 106.2,-46.19 111.78,-41.96"/>
</g>
<!-- E -->
<g id="node5" class="node">
<title>E</title>
<polygon fill="none" stroke="red" points="240,-36 152,-36 152,0 240,0 240,-36"/>
<text text-anchor="middle" x="196" y="-14.3" font-family="wqy-microhei" font-size="14.00">右下的终端</text>
</g>
<!-- C&#45;&gt;E -->
<g id="edge4" class="edge">
<title>C&#45;&gt;E</title>
<path fill="none" stroke="black" d="M156.1,-71.7C162.39,-63.39 170.05,-53.28 176.96,-44.14"/>
<polygon fill="black" stroke="black" points="179.8,-46.19 183.05,-36.1 174.22,-41.96 179.8,-46.19"/>
</g>
</g>
</svg>
